<?xml version="1.0" encoding="UTF-8"?>
<svg width="220px" height="220px" viewBox="0 0 220 220" version="1.1" xmlns="http://www.w3.org/2000/svg" xmlns:xlink="http://www.w3.org/1999/xlink">
    <!-- Generator: Sketch 49.1 (51147) - http://www.bohemiancoding.com/sketch -->
    <title>Group 6</title>
    <desc>Created with Sketch.</desc>
    <defs>
        <circle id="path-1" cx="90" cy="90" r="90"></circle>
        <filter x="-16.7%" y="-16.7%" width="133.3%" height="133.3%" filterUnits="objectBoundingBox" id="filter-2">
            <feOffset dx="0" dy="0" in="SourceAlpha" result="shadowOffsetOuter1"></feOffset>
            <feGaussianBlur stdDeviation="10" in="shadowOffsetOuter1" result="shadowBlurOuter1"></feGaussianBlur>
            <feColorMatrix values="0 0 0 0 0   0 0 0 0 0   0 0 0 0 0  0 0 0 0.2 0" type="matrix" in="shadowBlurOuter1"></feColorMatrix>
        </filter>
    </defs>
    <g id="Page-1" stroke="none" stroke-width="1" fill="none" fill-rule="evenodd">
        <g id="About-Us" transform="translate(-601.000000, -841.000000)">
            <g id="features" transform="translate(0.000000, 861.000000)">
                <g id="Group-6" transform="translate(621.000000, 0.000000)">
                    <g id="Oval-7">
                        <use fill="black" fill-opacity="1" filter="url(#filter-2)" xlink:href="#path-1"></use>
                        <use fill="#333742" fill-rule="evenodd" xlink:href="#path-1"></use>
                    </g>
                    <g id="noun_964586" transform="translate(61.000000, 60.000000)" fill="#F1F1F1" fill-rule="nonzero">
                        <path d="M30,0 C21.920828,0 14.6264598,1.41347561 9.21493902,3.81859756 C6.50917829,5.02115854 4.25354341,6.47385366 2.62957317,8.18597561 C1.00560293,9.89809756 0,11.9327122 0,14.1310976 L0,45.846 C0,48.0444146 1.00560293,50.079 2.62957317,51.791122 C4.25354341,53.5033171 6.50917829,54.9559756 9.21493902,56.1585366 C14.6264598,58.5636585 21.920828,60 30,60 C38.079172,60 45.3735402,58.5636585 50.785061,56.1585366 C53.4908217,54.9559756 55.7464566,53.5033171 57.3704268,51.791122 C58.9943971,50.079 60,48.0444146 60,45.846 L60,14.1310976 C60,11.9327122 58.9943971,9.89809756 57.3704268,8.18597561 C55.7464566,6.47385366 53.4908217,5.02115854 50.785061,3.81859756 C45.3735402,1.41347561 38.079172,0 30,0 Z M30,2.92682927 C37.7300963,2.92682927 44.6915817,4.31414634 49.5960366,6.49390244 C52.0482637,7.58378049 53.9874607,8.87352439 55.2439024,10.1981707 C56.5003441,11.5228171 57.0731707,12.8163073 57.0731707,14.1310976 L57.0731707,45.846 C57.0731707,47.1608049 56.5003441,48.4543171 55.2439024,49.7789268 C53.9874607,51.1036098 52.0482637,52.3933171 49.5960366,53.4832683 C44.6915817,55.6630244 37.7300963,57.0731707 30,57.0731707 C22.2699037,57.0731707 15.3084183,55.6630244 10.4039634,53.4832683 C7.95173634,52.3933171 6.01253927,51.1036098 4.75609756,49.7789268 C3.49965585,48.4543171 2.92682927,47.1608049 2.92682927,45.846 L2.92682927,14.1310976 C2.92682927,12.8163073 3.49965585,11.5228171 4.75609756,10.1981707 C6.01253927,8.87352439 7.95173634,7.58378049 10.4039634,6.49390244 C15.3084183,4.31414634 22.2699037,2.92682927 30,2.92682927 Z" id="Shape"></path>
                        <path d="M1.43056672,13.0727425 C1.01619051,13.0823901 0.625331541,13.2655741 0.354866891,13.5768911 C0.0844022417,13.8882082 -0.0403510424,14.2985172 0.0115279935,14.7061202 C0.451950007,18.8912114 4.2821893,22.1314844 9.64725869,24.3929575 C15.0123281,26.6544307 22.1401922,28 29.994443,28 C37.8486938,28 44.9765579,26.6544307 50.3416273,24.3929575 C55.7066967,22.1314844 59.536936,18.8912114 59.977358,14.7061202 C60.0734632,14.1701211 59.8590088,13.6258693 59.4218419,13.296307 C58.9846749,12.9667446 58.3982503,12.9072465 57.9027854,13.1421848 C57.4073206,13.3771231 57.086066,13.8670223 57.0706174,14.4112048 C56.8068944,16.91722 54.0800872,19.6578246 49.1972412,21.7160329 C44.3143952,23.7742413 37.5093359,25.0962174 29.994443,25.0962174 C22.4795501,25.0962174 15.6744907,23.7742413 10.7916448,21.7160329 C5.90879879,19.6578246 3.18199155,16.91722 2.91826861,14.4112048 C2.85776741,13.6451742 2.20564634,13.058471 1.43056672,13.0727425 Z" id="Shape"></path>
                        <path d="M1.43056675,34.0727357 C1.01619053,34.0823833 0.625331553,34.2655674 0.354866898,34.5768846 C0.0844022434,34.8882018 -0.0403510432,35.2985109 0.0115279937,35.7061142 C0.451949797,39.8911928 4.28218939,43.1314527 9.64725889,45.3929196 C15.0123284,47.6544591 22.1401926,49 29.9944436,49 C37.8486946,49 44.9765588,47.6544591 50.3416283,45.3929196 C55.7066978,43.1314527 59.5369372,39.8911928 59.9773592,35.7061142 C60.0734608,35.1701202 59.8590096,34.6258748 59.4218497,34.296313 C58.9846897,33.9667512 58.3982732,33.9072466 57.9028095,34.1421734 C57.4073458,34.3771003 57.0860834,34.866986 57.0706185,35.4111623 C56.8068956,37.9172005 54.0800883,40.6577917 49.1972422,42.7160664 C44.3143962,44.7742684 37.5093367,46.0962161 29.9944436,46.0962161 C22.4795505,46.0962161 15.674491,44.7742684 10.791645,42.7160664 C5.90879891,40.6577917 3.18199162,37.9172005 2.91826867,35.4111623 C2.85774913,34.6451457 2.20563331,34.0584629 1.43056675,34.0727357 Z" id="Shape"></path>
                        <path d="M1.43056672,25.0727425 C1.01619051,25.0823901 0.625331541,25.2655741 0.354866891,25.5768911 C0.0844022417,25.8882082 -0.0403510424,26.2985172 0.0115279935,26.7061202 C0.451948323,30.8912695 4.28218784,34.1314553 9.64725869,36.3929212 C15.0123295,38.6544597 22.1401922,40 29.994443,40 C37.8486938,40 44.9765564,38.6544597 50.3416273,36.3929212 C55.7066981,34.1314553 59.5369374,30.8912695 59.977358,26.7061202 C60.0734632,26.1701211 59.8590088,25.6258693 59.4218419,25.296307 C58.9846749,24.9667446 58.3982503,24.9072465 57.9027854,25.1421848 C57.4073206,25.3771231 57.086066,25.8670223 57.0706174,26.4112048 C56.806893,28.9172636 54.0800865,31.6577955 49.1972412,33.7160692 C44.314396,35.7742704 37.5093359,37.0962174 29.994443,37.0962174 C22.4795501,37.0962174 15.67449,35.7742704 10.7916448,33.7160692 C5.90879952,31.6577955 3.18199302,28.9172636 2.91826861,26.4112048 C2.85776741,25.6451742 2.20564634,25.058471 1.43056672,25.0727425 Z" id="Shape"></path>
                        <path d="M29.3359779,5.0092337 C28.5633643,5.09609401 27.9836357,5.77243061 28.0003525,6.56743236 L28.0003525,23.4439224 C27.9927039,23.9972196 28.2768508,24.5118688 28.743988,24.7908009 C29.2111252,25.069733 29.7888789,25.069733 30.2560161,24.7908009 C30.7231532,24.5118688 31.0073002,23.9972196 30.9996516,23.4439224 L30.9996516,6.56743236 C31.0089551,6.12558103 30.8315777,5.7010829 30.5129456,5.40265178 C30.1943136,5.10422066 29.7653739,4.96084152 29.3359779,5.0092337 Z" id="Shape"></path>
                        <path d="M29.5213068,6.00288232 C28.0705211,5.97355634 26.4314275,6.16462751 24.9829545,6.73161542 C24.2587177,7.01510937 23.5695005,7.38889203 23.0014205,7.96825339 C22.4333405,8.54761475 22,9.41334613 22,10.3531981 C22,11.2359385 22.3782045,12.0798061 22.9161932,12.6498114 C23.4541818,13.2198167 24.1070309,13.5664923 24.7911932,13.8422838 C26.1595184,14.3938738 27.7517411,14.6605918 29.2869318,14.924342 C30.8221225,15.1880921 32.2932107,15.4591491 33.2286932,15.8297377 C33.6964348,16.0150284 34.0137441,16.2231299 34.1448864,16.3597254 C34.2760286,16.4963209 34.2727273,16.4864913 34.2727273,16.646802 C34.2727273,16.7792 34.2587773,16.8408694 34.0809659,17.02221 C33.9031539,17.2035506 33.5443552,17.4281664 33.0582386,17.6184462 C32.0860048,17.9990127 30.6604532,18.1935323 29.5213068,18.1705167 C27.8479109,18.1367388 25.657718,17.3718888 24.9829545,16.7130505 C24.6289876,16.3659154 24.1232221,16.2408661 23.656175,16.3850074 C23.189128,16.5291488 22.831755,16.9205823 22.718675,17.4118587 C22.6055949,17.9031351 22.7539875,18.4196179 23.1079545,18.7667528 C24.725352,20.3459749 27.2276405,20.9516377 29.4786932,20.9971178 C30.9294645,21.0264437 32.5685766,20.8353655 34.0170455,20.2683847 C34.7412795,19.9848907 35.4304982,19.611101 35.9985795,19.0317467 C36.5666609,18.4523924 37,17.586654 37,16.646802 C37,15.7666126 36.6238293,14.934758 36.0838068,14.3722715 C35.5437843,13.8097849 34.8916334,13.4502978 34.2088068,13.1797991 C32.843153,12.6388018 31.2460593,12.4052822 29.7130682,12.1419066 C28.180077,11.8785309 26.704118,11.5904579 25.7713068,11.2144281 C25.3049009,11.0264167 25.0095966,10.8255443 24.8764205,10.6844404 C24.7432443,10.5433364 24.7272727,10.5269846 24.7272727,10.3531981 C24.7272727,10.220793 24.7412227,10.1591378 24.9190341,9.9777901 C25.0968482,9.79644244 25.4556461,9.57184072 25.9417614,9.38155393 C26.9139918,9.00098743 28.3395645,8.80645368 29.4786932,8.82948341 C31.1750705,8.86375595 33.3573884,9.62953165 34.0170455,10.2869496 C34.564231,10.8235738 35.4275455,10.7988568 35.9453125,10.2317425 C36.4630795,9.6646283 36.439231,8.76987147 35.8920455,8.23324724 C34.2771393,6.62381592 31.7781632,6.04850367 29.5213068,6.00288232 Z" id="Shape"></path>
                    </g>
                </g>
            </g>
        </g>
    </g>
</svg>