<?xml version="1.0" encoding="UTF-8"?>
<svg width="220px" height="220px" viewBox="0 0 220 220" version="1.1" xmlns="http://www.w3.org/2000/svg" xmlns:xlink="http://www.w3.org/1999/xlink">
    <!-- Generator: Sketch 49.1 (51147) - http://www.bohemiancoding.com/sketch -->
    <title>Group 5</title>
    <desc>Created with Sketch.</desc>
    <defs>
        <circle id="path-1" cx="90" cy="90" r="90"></circle>
        <filter x="-16.7%" y="-16.7%" width="133.3%" height="133.3%" filterUnits="objectBoundingBox" id="filter-2">
            <feOffset dx="0" dy="0" in="SourceAlpha" result="shadowOffsetOuter1"></feOffset>
            <feGaussianBlur stdDeviation="10" in="shadowOffsetOuter1" result="shadowBlurOuter1"></feGaussianBlur>
            <feColorMatrix values="0 0 0 0 0   0 0 0 0 0   0 0 0 0 0  0 0 0 0.2 0" type="matrix" in="shadowBlurOuter1"></feColorMatrix>
        </filter>
    </defs>
    <g id="Page-1" stroke="none" stroke-width="1" fill="none" fill-rule="evenodd">
        <g id="About-Us" transform="translate(-231.000000, -841.000000)">
            <g id="features" transform="translate(0.000000, 861.000000)">
                <g id="Group-5" transform="translate(251.000000, 0.000000)">
                    <g id="Oval-7-Copy">
                        <use fill="black" fill-opacity="1" filter="url(#filter-2)" xlink:href="#path-1"></use>
                        <use fill="#333742" fill-rule="evenodd" xlink:href="#path-1"></use>
                    </g>
                    <g id="noun_968043" transform="translate(67.000000, 54.000000)" fill="#F1F1F1" fill-rule="nonzero">
                        <path d="M12.3383441,0.0165095013 C12.1587123,0.0436793428 11.9851185,0.10240062 11.825349,0.190039424 L3.22657257,4.9497173 C2.84767044,5.15745802 2.56998097,5.51459758 2.45901447,5.93688241 C2.34804797,6.35916725 2.41363123,6.80920139 2.64029236,7.18081631 L5.15641159,11.4199044 L3.98385117,12.1140241 C3.62272476,12.3262485 3.36018141,12.676164 3.25465667,13.085888 C3.14913193,13.4956121 3.20938293,13.9311432 3.4219993,14.2955431 L11.6543506,28.7728967 C6.84260349,35.3654202 3.98385117,43.5444618 3.98385117,52.3729662 C3.98385117,58.6371044 5.43762753,64.5582643 7.99009926,69.8251184 L1.63873034,69.8251184 C1.58990052,69.8227933 1.54099011,69.8227933 1.49216029,69.8251184 C0.933526589,69.8515784 0.431251699,70.1785071 0.174581828,70.6827251 C-0.0820880432,71.186943 -0.0541477872,71.7918261 0.247875318,72.2694676 C0.549898422,72.7471091 1.08010712,73.0249237 1.63873034,72.998237 L45.4143192,72.998237 C45.9781424,73.0063289 46.5025825,72.7057146 46.7868211,72.2115053 C47.0710596,71.7172959 47.0710596,71.1060594 46.7868211,70.61185 C46.5025825,70.1176407 45.9781424,69.8170265 45.4143192,69.8251184 L39.1606637,69.8251184 L39.1606637,61.0990423 L45.4143192,61.0990423 C45.9781424,61.1071342 46.5025825,60.8065199 46.7868211,60.3123106 C47.0710596,59.8181012 47.0710596,59.2068647 46.7868211,58.7126554 C46.5025825,58.218446 45.9781424,57.9178318 45.4143192,57.9259237 L29.7801803,57.9259237 C29.7313505,57.9235986 29.6824401,57.9235986 29.6336103,57.9259237 C29.0749766,57.9523837 28.5727017,58.2793124 28.3160318,58.7835304 C28.0593619,59.2877483 28.0873022,59.8926314 28.3893253,60.3702729 C28.6913484,60.8479144 29.2215571,61.125729 29.7801803,61.0990423 L36.0338359,61.0990423 L36.0338359,69.8251184 L19.8378451,69.8251184 C16.2676097,64.942897 14.1460414,58.9216348 14.1460414,52.3729662 C14.1460414,47.4797198 15.3144518,42.8899521 17.3950109,38.8376322 L23.7463799,49.9931272 C24.1813794,50.7417652 25.1289019,50.9959681 25.8716456,50.563297 L39.1606637,42.6305005 C39.8983802,42.189061 40.1488746,41.2275111 39.7225155,40.4737715 L19.398135,4.77618738 C19.0814499,4.20396819 18.450303,3.88864973 17.8102927,3.98290773 C17.6206611,4.01492549 17.4384735,4.08215633 17.2728692,4.18122764 L16.2224505,4.80097737 L13.9261864,0.809789148 C13.6095013,0.237569963 12.9783544,-0.0777484989 12.3383441,0.0165095013 Z M11.971919,3.73500784 L13.5109046,6.41232665 L7.86795755,9.78376515 L6.18240195,6.95770641 L11.971919,3.73500784 Z M17.4927243,7.72619606 L36.253691,40.6720914 L25.6517905,47.0183285 L6.89082387,14.0724332 L17.4927243,7.72619606 Z M13.3887628,31.7972753 L15.5873136,35.6397236 C12.6953606,40.5252267 11.0192137,46.2633453 11.0192137,52.3729662 C11.0192137,58.7885185 12.8604743,64.7847853 16.0270238,69.8251184 L11.5322088,69.8251184 C8.73107693,64.6332705 7.11067895,58.7153504 7.11067895,52.3729662 C7.11067895,44.7368737 9.43971225,37.6576977 13.3887628,31.7972753 Z" id="Shape"></path>
                    </g>
                </g>
            </g>
        </g>
    </g>
</svg>