<?xml version="1.0" encoding="UTF-8"?>
<svg width="220px" height="220px" viewBox="0 0 220 220" version="1.1" xmlns="http://www.w3.org/2000/svg" xmlns:xlink="http://www.w3.org/1999/xlink">
    <!-- Generator: Sketch 49.1 (51147) - http://www.bohemiancoding.com/sketch -->
    <title>Group 7</title>
    <desc>Created with Sketch.</desc>
    <defs>
        <circle id="path-1" cx="90" cy="90" r="90"></circle>
        <filter x="-16.7%" y="-16.7%" width="133.3%" height="133.3%" filterUnits="objectBoundingBox" id="filter-2">
            <feOffset dx="0" dy="0" in="SourceAlpha" result="shadowOffsetOuter1"></feOffset>
            <feGaussianBlur stdDeviation="10" in="shadowOffsetOuter1" result="shadowBlurOuter1"></feGaussianBlur>
            <feColorMatrix values="0 0 0 0 0   0 0 0 0 0   0 0 0 0 0  0 0 0 0.2 0" type="matrix" in="shadowBlurOuter1"></feColorMatrix>
        </filter>
    </defs>
    <g id="Page-1" stroke="none" stroke-width="1" fill="none" fill-rule="evenodd">
        <g id="About-Us" transform="translate(-971.000000, -841.000000)">
            <g id="features" transform="translate(0.000000, 861.000000)">
                <g id="Group-7" transform="translate(991.000000, 0.000000)">
                    <g id="Oval-7-Copy-3">
                        <use fill="black" fill-opacity="1" filter="url(#filter-2)" xlink:href="#path-1"></use>
                        <use fill="#333742" fill-rule="evenodd" xlink:href="#path-1"></use>
                    </g>
                    <g id="noun_968076" transform="translate(55.000000, 62.000000)" fill="#F1F1F1" fill-rule="nonzero">
                        <path d="M27.9594818,0 C12.5392549,0 0,12.557431 0,28 C0,43.4426323 12.5392585,56 27.9594818,56 C42.7750101,56 54.9319822,44.4117981 55.8625937,29.8064516 L62.3451349,29.8064516 L68.9967858,37.3145161 C69.659476,38.0579283 70.7976268,38.1248686 71.542656,37.4642513 C72.2876853,36.803634 72.3591636,35.6641159 71.7025421,34.9153226 L67.1647633,29.8064516 L73.1681601,29.8064516 L79.819811,37.3145161 C80.4825012,38.0579283 81.620652,38.1248686 82.3656813,37.4642513 C83.1107105,36.803634 83.1821888,35.6641159 82.5255673,34.9153226 L76.3812457,28 L82.5255673,21.0564516 C83.0293533,20.5062703 83.1433762,19.7024519 82.8125215,19.0335321 C82.4816669,18.3646123 81.7740731,17.9683527 81.0317643,18.0362903 C80.5623032,18.0768279 80.1273123,18.2997039 79.819811,18.6572581 L73.1399751,26.1935484 L67.1647633,26.1935484 L71.7025421,21.0564516 C72.2063281,20.5062703 72.320351,19.7024519 71.9894963,19.0335321 C71.6586417,18.3646123 70.9510478,17.9683527 70.2087391,18.0362903 C69.7392779,18.0768279 69.3042871,18.2997039 68.9967858,18.6572581 L62.3169499,26.1935484 L55.8625937,26.1935484 C54.9284386,11.5916514 42.772574,0 27.9594818,0 Z M27.8120176,3.5443038 C40.6404985,3.5443038 51.125451,13.5171465 52.0508475,26.1884669 L44.8241894,26.1884669 C43.9204965,17.5527322 36.6248575,10.790436 27.8120176,10.790436 C18.3911828,10.790436 10.715488,18.5168781 10.715488,28 C10.715488,37.4831944 18.3911909,45.209564 27.8120176,45.209564 C36.6251527,45.209564 43.9209014,38.4477424 44.8241894,29.8115331 L52.0508475,29.8115331 C51.1389249,42.4962788 40.6500033,52.4556962 27.8120176,52.4556962 C14.3729062,52.4556962 3.51694915,41.5279854 3.51694915,28 C3.51694915,14.4720418 14.3729098,3.5443038 27.8120176,3.5443038 Z M28.1915112,14.1772152 C35.0155916,14.1772152 40.6273309,19.2476313 41.5,25.849789 L34.1747394,25.849789 C33.3938975,23.2702687 31.0039801,21.3603376 28.1915112,21.3603376 C24.7538458,21.3603376 21.928693,24.1955968 21.928693,27.6455696 C21.928693,31.0955335 24.7538369,33.9308017 28.1915112,33.9308017 C31.014592,33.9308017 33.4312069,32.0357378 34.2026984,29.4413502 L41.5,29.4413502 C40.6357016,36.0529421 35.0222347,41.1139241 28.1915112,41.1139241 C20.7584711,41.1139241 14.7711864,35.1052422 14.7711864,27.6455696 C14.7711864,20.185933 20.7584791,14.1772152 28.1915112,14.1772152 Z M28.1355932,24.8101266 C29.7116948,24.8101266 30.9491525,26.0571544 30.9491525,27.6455696 C30.9491525,29.2338903 29.7116854,30.4810127 28.1355932,30.4810127 C26.559502,30.4810127 25.3220339,29.2338903 25.3220339,27.6455696 C25.3220339,26.0571544 26.5594926,24.8101266 28.1355932,24.8101266 Z" id="Shape"></path>
                    </g>
                </g>
            </g>
        </g>
    </g>
</svg>