<?xml version="1.0" encoding="UTF-8"?>
<svg width="156px" height="139px" viewBox="0 0 156 139" version="1.1" xmlns="http://www.w3.org/2000/svg" xmlns:xlink="http://www.w3.org/1999/xlink">
    <!-- Generator: Sketch 49.1 (51147) - http://www.bohemiancoding.com/sketch -->
    <title>Icon''</title>
    <desc>Created with Sketch.</desc>
    <defs></defs>
    <g id="Page-1" stroke="none" stroke-width="1" fill="none" fill-rule="evenodd" fill-opacity="0.078125">
        <g id="Home-V4-(Update-Icons)" transform="translate(-865.000000, -3258.000000)" fill="#010101">
            <g id="Card-1-Copy-6" transform="translate(403.000000, 3112.000000)">
                <g id="Icon''" transform="translate(462.000000, 146.000000)">
                    <g id="Group-18">
                        <path d="M121.46875,0 C102.424766,0 86.9375,15.585375 86.9375,34.75 C86.9375,53.914625 102.424766,69.5 121.46875,69.5 C127.787969,69.5 133.632383,67.65825 138.734375,64.6610625 L138.734375,86.875 C138.734375,106.039625 123.247109,121.625 104.203125,121.625 L95.5703125,121.625 L95.5703125,139 L104.203125,139 C132.769102,139 156,115.621938 156,86.875 L156,34.75 C156,15.585375 140.512734,0 121.46875,0 Z" id="Shape" transform="translate(121.468750, 69.500000) scale(1, -1) translate(-121.468750, -69.500000) "></path>
                        <path d="M34.53125,0 C15.4872656,0 0,15.585375 0,34.75 C0,53.914625 15.4872656,69.5 34.53125,69.5 C40.8504687,69.5 46.6948828,67.65825 51.796875,64.6610625 L51.796875,86.875 C51.796875,106.039625 36.3096094,121.625 17.265625,121.625 L8.6328125,121.625 L8.6328125,139 L17.265625,139 C45.8316016,139 69.0625,115.621938 69.0625,86.875 L69.0625,34.75 C69.0625,15.585375 53.5752344,0 34.53125,0 Z" id="Shape" transform="translate(34.531250, 69.500000) scale(1, -1) translate(-34.531250, -69.500000) "></path>
                    </g>
                </g>
            </g>
        </g>
    </g>
</svg>