<?xml version="1.0" encoding="UTF-8"?>
<svg width="88px" height="90px" viewBox="0 0 88 90" version="1.1" xmlns="http://www.w3.org/2000/svg" xmlns:xlink="http://www.w3.org/1999/xlink">
    <!-- Generator: Sketch 49.1 (51147) - http://www.bohemiancoding.com/sketch -->
    <title>Group 3</title>
    <desc>Created with Sketch.</desc>
    <defs>
        <circle id="path-1" cx="25" cy="25" r="25"></circle>
        <filter x="-60.0%" y="-60.0%" width="220.0%" height="220.0%" filterUnits="objectBoundingBox" id="filter-2">
            <feOffset dx="0" dy="0" in="SourceAlpha" result="shadowOffsetOuter1"></feOffset>
            <feGaussianBlur stdDeviation="10" in="shadowOffsetOuter1" result="shadowBlurOuter1"></feGaussianBlur>
            <feColorMatrix values="0 0 0 0 0   0 0 0 0 0   0 0 0 0 0  0 0 0 0.2 0" type="matrix" in="shadowBlurOuter1"></feColorMatrix>
        </filter>
    </defs>
    <g id="Page-1" stroke="none" stroke-width="1" fill="none" fill-rule="evenodd">
        <g id="Contact-Us" transform="translate(-61.000000, -558.000000)">
            <g id="Group-3" transform="translate(80.000000, 578.000000)">
                <g id="Group-5">
                    <g id="Oval-7-Copy">
                        <use fill="black" fill-opacity="1" filter="url(#filter-2)" xlink:href="#path-1"></use>
                        <use fill="#333742" fill-rule="evenodd" xlink:href="#path-1"></use>
                    </g>
                </g>
                <path d="M34.2212778,15.0001613 L29.91036,15.0578389 L29.91036,15.0567698 C28.9448028,15.0802685 28.1657765,15.8535763 28.1338014,16.8212501 L28.030425,21.031547 C28.0165709,21.5677187 28.2457008,22.0825627 28.6549501,22.4286175 L30.6553077,24.1268726 C30.0243984,25.6307454 25.5398271,30.1144737 24.0447426,30.741452 L22.1733225,28.6907164 C21.8248423,28.3072835 21.3260625,28.0957843 20.8091943,28.1128738 L16.7765587,28.228229 C15.8035533,28.2538632 15.0223717,29.0410586 15,30.0162244 L15.0575498,34.2191386 C15.0468933,34.6944445 15.2312634,35.1537272 15.5659058,35.4890908 C15.9016178,35.8255482 16.359883,36.0092394 16.8341085,35.999642 L18.9762262,35.999642 C26.9618325,35.8789466 35.940524,25.7246363 36,18.926311 L36,16.779437 C35.9978692,15.7957128 35.2017668,15 34.2213133,15 L34.2212778,15.0001613 Z M34.6411838,18.910504 C34.5889622,25.0211492 26.1674925,34.5174222 18.9591664,34.6210527 L16.8415757,34.6210527 C16.7286096,34.6306666 16.6167074,34.5890093 16.5367749,34.5078357 C16.457912,34.4266594 16.4184805,34.3134424 16.4302038,34.2002254 L16.372654,29.9973111 C16.3992981,29.7772836 16.579404,29.6074526 16.801072,29.5956951 L20.8530783,29.4920892 C20.968178,29.4920892 21.0779467,29.5401529 21.1557511,29.6256002 L23.5099362,32.2039765 L23.8264685,32.2039765 C25.1191982,32.1548436 27.6460273,29.762316 28.6658495,28.7368661 C29.6856717,27.7114163 32.0816264,25.1822577 32.0816264,23.9025987 L32.0826932,23.5640086 L29.531337,21.3765573 C29.4364865,21.2964501 29.3842676,21.177893 29.3863984,21.0539903 L29.4897748,16.8264672 L29.4908415,16.8264672 C29.5100239,16.603235 29.6880017,16.429144 29.9107474,16.4131209 L34.2374891,16.3671926 C34.4644882,16.3671926 34.6499196,16.5519721 34.6499196,16.7794725 L34.6411838,18.910504 Z" id="Fill-1" fill="#FFFFFF"></path>
            </g>
        </g>
    </g>
</svg>