<?xml version="1.0" encoding="UTF-8"?>
<svg width="88px" height="90px" viewBox="0 0 88 90" version="1.1" xmlns="http://www.w3.org/2000/svg" xmlns:xlink="http://www.w3.org/1999/xlink">
    <!-- Generator: Sketch 49.1 (51147) - http://www.bohemiancoding.com/sketch -->
    <title>Group 4</title>
    <desc>Created with Sketch.</desc>
    <defs>
        <circle id="path-1" cx="25" cy="25" r="25"></circle>
        <filter x="-60.0%" y="-60.0%" width="220.0%" height="220.0%" filterUnits="objectBoundingBox" id="filter-2">
            <feOffset dx="0" dy="0" in="SourceAlpha" result="shadowOffsetOuter1"></feOffset>
            <feGaussianBlur stdDeviation="10" in="shadowOffsetOuter1" result="shadowBlurOuter1"></feGaussianBlur>
            <feColorMatrix values="0 0 0 0 0   0 0 0 0 0   0 0 0 0 0  0 0 0 0.2 0" type="matrix" in="shadowBlurOuter1"></feColorMatrix>
        </filter>
    </defs>
    <g id="Page-1" stroke="none" stroke-width="1" fill="none" fill-rule="evenodd">
        <g id="Contact-Us" transform="translate(-61.000000, -638.000000)">
            <g id="Group-4" transform="translate(80.000000, 658.000000)">
                <g id="Group-5-Copy-2">
                    <g id="Oval-7-Copy">
                        <use fill="black" fill-opacity="1" filter="url(#filter-2)" xlink:href="#path-1"></use>
                        <use fill="#333742" fill-rule="evenodd" xlink:href="#path-1"></use>
                    </g>
                </g>
                <path d="M21.8576296,18.9905861 C21.8576296,18.6278364 22.1490744,18.3347615 22.5098064,18.3347615 L29.4901842,18.3347615 C29.8509162,18.3347615 30.142361,18.6278364 30.142361,18.9905861 C30.142361,19.3523127 29.8509162,19.6464107 29.4901842,19.6464107 L22.5098064,19.6464107 C22.1490744,19.6464107 21.8576296,19.3523127 21.8576296,18.9905861 Z M22.5098064,22.2851866 L29.4901842,22.2851866 C29.8509162,22.2851866 30.142361,21.9921117 30.142361,21.629362 C30.142361,21.2676354 29.8509162,20.9735374 29.4901842,20.9735374 L22.5098064,20.9735374 C22.1490744,20.9735374 21.8576296,21.2676354 21.8576296,21.629362 C21.8576296,21.9921117 22.1490744,22.2851866 22.5098064,22.2851866 Z M27.9382645,24.2711022 C27.9382645,24.0968994 27.8699894,23.9308866 27.7477063,23.8079326 C27.6254232,23.6849786 27.4593138,23.6152854 27.2860956,23.6152854 L22.5098142,23.6152854 C22.1490822,23.6152854 21.8576375,23.9093834 21.8576375,24.27111 C21.8576375,24.6338597 22.1490822,24.9269346 22.5098142,24.9269346 L27.2889652,24.9269346 C27.4611816,24.9269346 27.6272884,24.8582777 27.7495585,24.7353106 C27.8718286,24.6123435 27.9411367,24.4453049 27.9411367,24.2711179 L27.9382645,24.2711022 Z M25.5771761,11.1546101 L22.9684692,13.3792983 C22.8370139,13.4920188 22.7544744,13.6518853 22.7402074,13.8260723 C22.7249203,13.999252 22.7799484,14.1714033 22.8920419,14.3035913 C23.1243786,14.5802706 23.5360795,14.615108 23.8111937,14.3814718 L26.0000553,12.5185102 L28.1970822,14.383518 C28.4722225,14.6181799 28.8839025,14.5833398 29.1162339,14.3066632 C29.3485732,14.0299839 29.3139244,13.6160012 29.0387893,13.3823702 L26.4300824,11.157682 C26.1855161,10.9465878 25.8237667,10.9476135 25.5802178,11.1597308 L25.5771761,11.1546101 Z M37.7676633,20.7952318 C37.9144031,20.9202477 38,21.1026561 38,21.2963342 L38,33.6861726 C37.99898,34.9629839 36.9697695,35.9979538 35.6990423,36 L16.3009588,36 C15.0302305,35.9979504 14.0010177,34.9629839 14,33.6861726 L14,21.2963342 C14,21.1026614 14.0855969,20.9202582 14.2323367,20.7952318 L16.6902352,18.7232458 L16.6892152,18.7232458 C16.9643555,18.4885838 17.3760356,18.5234239 17.6093844,18.8001005 C17.8417211,19.0767798 17.8070748,19.4907625 17.5319371,19.7254166 L15.7058423,21.2676275 L18.5284631,23.274031 L18.5284631,16.9781149 C18.5284631,16.0497033 19.277449,15.2965281 20.2006964,15.2965281 L31.8073551,15.2965281 C32.2506266,15.2965281 32.6755588,15.4738054 32.9894123,15.7894196 C33.3032659,16.1050339 33.4795623,16.5323378 33.4795623,16.9780886 L33.4795623,23.2740048 L36.3042701,21.2645058 L34.4934623,19.7274103 C34.3620069,19.6157155 34.2794675,19.4548234 34.2652004,19.2816594 C34.2509334,19.1074567 34.3049415,18.9353053 34.417035,18.8031173 C34.6493717,18.526438 35.0610726,18.4916006 35.3361868,18.7252368 L37.7676633,20.7952318 Z M19.8247165,24.2055197 L26.0000475,28.5974459 L32.1753784,24.2055197 L32.1753784,16.9893504 C32.1753784,16.7844053 32.0102968,16.6194129 31.8074986,16.6194129 L20.1927529,16.6194129 C19.9899677,16.6194129 19.8248731,16.7843948 19.8248731,16.9893504 L19.8247165,24.2055197 Z M36.6957457,22.5946571 L29.3261488,27.8412539 L34.6087802,31.8971356 C34.8971727,32.1143762 34.9552425,32.5252844 34.7392155,32.81529 C34.5231885,33.1052957 34.1145607,33.1636903 33.8261681,32.9464549 L28.2093613,28.6313914 L26.3832665,29.9430406 C26.1580621,30.1039222 25.8554208,30.1039222 25.6291937,29.9430406 L23.8030989,28.6313914 L18.1891617,32.9464549 C17.9017865,33.1636955 17.4921413,33.1052878 17.2761143,32.81529 C17.0600873,32.5252923 17.1191849,32.1143709 17.4065496,31.8971356 L22.6737897,27.8362696 L15.3041917,22.5949194 L15.3041917,33.6864874 C15.3052107,34.2388224 15.7505164,34.6866194 16.300797,34.6886656 L35.6988805,34.6886656 C36.2491612,34.686616 36.6944674,34.2388224 36.6954848,33.6864874 L36.6957457,22.5946571 Z" id="Fill-1" fill="#FFFFFF"></path>
            </g>
        </g>
    </g>
</svg>