<?xml version="1.0" encoding="UTF-8"?>
<svg width="90px" height="90px" viewBox="0 0 90 90" version="1.1" xmlns="http://www.w3.org/2000/svg" xmlns:xlink="http://www.w3.org/1999/xlink">
    <!-- Generator: Sketch 49.1 (51147) - http://www.bohemiancoding.com/sketch -->
    <title>Group 11</title>
    <desc>Created with Sketch.</desc>
    <defs></defs>
    <g id="Page-1" stroke="none" stroke-width="1" fill="none" fill-rule="evenodd">
        <g id="Home-V4-(Update-Icons)" transform="translate(-803.000000, -1216.000000)">
            <g id="Group-22" transform="translate(733.000000, 1183.000000)">
                <g id="Group-11" transform="translate(70.000000, 33.000000)">
                    <circle id="Oval-6-Copy-2" fill="#F7F7F7" opacity="0.200000003" cx="45" cy="45" r="45"></circle>
                    <g id="Group-2" transform="translate(21.913043, 21.130435)" stroke="#FFFFFF" stroke-width="1.8">
                        <path d="M34.9775937,27.8790458 C30.9774654,30.6524313 27.5298155,32.7636267 24.6346439,34.2126319 C22.0008334,35.5308284 20.1155988,36.3257863 16.4804903,37.6767476 C12.7093385,39.0782684 9.9926574,40.2322605 9.57445089,41.5656464 C9.12507372,42.998415 11.7525994,45.554632 21.3500662,45.8177607 C22.7887295,45.8572038 27.563808,46.5692342 32.4000232,46.5917738 C35.5470234,46.6064407 38.4184446,46.6064407 41.5435823,45.8177607 C44.4930086,45.0734244 45.9332178,43.5053079 44.7121831,40.6887266 C43.8981599,38.8110058 40.6532968,34.5411122 34.9775937,27.8790458 Z" id="Path-2"></path>
                        <path d="M11.1694382,34.9787117 C11.6125723,36.0717949 12.7632775,36.6441814 13.2390737,36.4262888 C27.6703926,29.8174168 33.8953272,25.4246713 33.4156774,23.4514551 C32.9382438,21.487356 31.5194786,22.3916593 28.6793029,18.9358844 C27.7911087,17.8551768 26.5797558,16.1988865 25.3722841,14.6828662 C24.0337088,13.0022409 22.3608347,11.0337928 21.4992981,8.37205564 C19.8606062,3.30927904 20.1049956,2.41389956 19.8606062,0.519609163 C19.5009583,-1.70443378 -1.84743713,6.80991034 0.165670578,9.30871377 C2.17877828,11.8075172 2.38278336,11.9421774 4.13525525,13.1922176 C8.69117052,16.441957 12.7560234,18.3766206 13.2390737,19.9190923 C13.4532738,20.6030738 13.7488565,21.4194732 13.6696116,22.3151907 C13.3964157,25.4031649 11.9464765,29.3537843 11.3848819,32.0839654 C11.2671864,32.6561399 10.7263041,33.8856286 11.1694382,34.9787117 Z" id="Path-3"></path>
                    </g>
                </g>
            </g>
        </g>
    </g>
</svg>