<?xml version="1.0" encoding="UTF-8"?>
<svg width="90px" height="90px" viewBox="0 0 90 90" version="1.1" xmlns="http://www.w3.org/2000/svg" xmlns:xlink="http://www.w3.org/1999/xlink">
    <!-- Generator: Sketch 49.1 (51147) - http://www.bohemiancoding.com/sketch -->
    <title>Group 15</title>
    <desc>Created with Sketch.</desc>
    <defs></defs>
    <g id="Page-1" stroke="none" stroke-width="1" fill="none" fill-rule="evenodd">
        <g id="Home-V4-(Update-Icons)" transform="translate(-927.000000, -1456.000000)">
            <g id="Group-14" transform="translate(857.000000, 1423.000000)">
                <g id="Group-15" transform="translate(70.000000, 33.000000)">
                    <circle id="Oval-6-Copy-6" fill="#F7F7F7" opacity="0.2" cx="45" cy="45" r="45"></circle>
                    <g id="Group-3" transform="translate(25.043478, 20.347826)" fill="#FFFFFF" stroke="#FFFFFF" stroke-width="0.699999988">
                        <path d="M33.4492725,3.61002411 L24.642413,3.61002411 C23.9953505,1.58846773 22.1165957,0.216258723 19.9946783,0.216258723 C17.872761,0.216258723 15.9940062,1.58846773 15.3491713,3.61002411 L6.53545742,3.61002411 C3.06360812,3.61002411 0.252187602,6.42367233 0.252187602,9.89329393 L0.252187602,42.6285585 C0.252187602,46.1004077 3.06360812,48.9118271 6.53545742,48.9118271 L33.4489869,48.9118271 C36.9208362,48.9118271 39.7322567,46.1004077 39.7322567,42.6285585 L39.7322567,9.89329393 C39.7322567,6.42367233 36.9208362,3.61002411 33.4489869,3.61002411 L33.4492725,3.61002411 Z M15.7864298,4.7524368 L15.7886575,4.7524368 C16.063105,4.75913134 16.3018521,4.5694737 16.3598639,4.30172072 C16.7324846,2.58364628 18.2519849,1.36092197 20.0102151,1.36092197 C21.7662177,1.36092197 23.2857408,2.58364628 23.6605664,4.30172072 C23.7163504,4.5694737 23.9573252,4.75913134 24.2317728,4.7524368 L27.3042346,4.7524368 L27.3042346,8.49429534 C27.3042346,9.44032729 26.5366475,10.2079144 25.5906155,10.2079144 L14.4229603,10.2079144 C13.4769283,10.2079144 12.7093412,9.44032729 12.7093412,8.49429534 L12.7093412,4.7524368 L15.7864298,4.7524368 Z M38.5901296,42.6285585 C38.5901296,45.4689963 36.2897103,47.7694144 33.4492725,47.7694144 L6.53574302,47.7694144 C3.69530522,47.7694144 1.3948859,45.4689963 1.3948859,42.6285585 L1.3948859,9.89329393 C1.3948859,7.05285613 3.69530522,4.7524368 6.53574302,4.7524368 L11.5672712,4.7524368 L11.5672712,8.49429534 C11.5672712,9.25068679 11.8684912,9.97811807 12.4039743,10.513624 C12.9394574,11.04913 13.6668544,11.3503271 14.423303,11.3503271 L25.5618267,11.3503271 C26.3182182,11.3503271 27.0456495,11.0491071 27.5811554,10.513624 C28.1166614,9.97814092 28.4178585,9.25074391 28.4178585,8.49429534 L28.4178585,4.7524368 L33.4493867,4.7524368 C36.2898245,4.7524368 38.5902438,7.05285613 38.5902438,9.89329393 L38.5901296,42.6285585 Z" id="Fill-1"></path>
                        <path d="M26.4919792,23.1452812 L18.015277,31.6219834 L13.4902374,27.0969438 L13.4924708,27.0991772 C13.2648794,26.9050584 12.927959,26.9184418 12.7159729,27.1281831 C12.5062317,27.340152 12.4928483,27.6770781 12.6869671,27.904681 L17.6158495,32.8335634 C17.8389741,33.0544603 18.1981944,33.0544603 18.4213647,32.8335634 L27.2973401,23.957588 C27.4914589,23.7299965 27.4780755,23.3930762 27.2683285,23.1810901 C27.0563596,22.9713488 26.7194335,22.9579655 26.4918306,23.1520842 L26.4919792,23.1452812 Z" id="Fill-2" stroke-linecap="round" stroke-linejoin="round"></path>
                    </g>
                </g>
            </g>
        </g>
    </g>
</svg>