<?xml version="1.0" encoding="UTF-8"?>
<svg width="90px" height="90px" viewBox="0 0 90 90" version="1.1" xmlns="http://www.w3.org/2000/svg" xmlns:xlink="http://www.w3.org/1999/xlink">
    <!-- Generator: Sketch 49.1 (51147) - http://www.bohemiancoding.com/sketch -->
    <title>Group 13</title>
    <desc>Created with Sketch.</desc>
    <defs></defs>
    <g id="Page-1" stroke="none" stroke-width="1" fill="none" fill-rule="evenodd">
        <g id="Home-V4-(Update-Icons)" transform="translate(-1058.000000, -1216.000000)">
            <g id="Group-17" transform="translate(988.000000, 1183.000000)">
                <g id="Group-13" transform="translate(70.000000, 33.000000)">
                    <circle id="Oval-6-Copy-4" fill="#F7F7F7" opacity="0.0590401786" cx="45" cy="45" r="45"></circle>
                    <path d="M57.6473438,66.0098309 C56.9973191,66.0098309 56.4179664,65.793738 55.8385847,65.4345172 L46.2152628,58.4662085 C45.92699,58.2501156 45.4917592,58.2501156 45.2035153,58.4662085 L35.5801935,65.4345172 C34.494938,66.2259525 33.1214387,66.2259525 32.0361832,65.4345172 C30.9509278,64.6430819 30.515668,63.3521861 30.9509278,62.0584165 L34.6419539,50.8492907 C34.7860903,50.4900699 34.6419539,50.1308491 34.3536812,49.9147419 L24.7303593,42.9464332 C23.6451038,42.1549979 23.2098441,40.864102 23.6451038,39.5703324 C24.0803347,38.2765628 25.1656191,37.4880013 26.5391184,37.4880013 L38.4769284,37.4880013 C38.8386802,37.4880013 39.200432,37.2719084 39.27394,36.9126876 L42.8151285,25.560592 C43.2503594,24.2668224 44.3356438,23.4782609 45.7091431,23.4782609 C47.0826424,23.4782609 48.1678978,24.2696961 48.6031576,25.560592 L52.2941838,36.7697178 C52.4383202,37.1289385 52.7294146,37.3450314 53.0911954,37.3450314 L65.0261113,37.3422295 C66.3996106,37.3422295 67.4848661,38.1336648 67.9201259,39.4245606 C68.3553567,40.7183302 67.9201259,42.0120999 66.8348704,42.8006614 L57.2115486,49.7689701 C56.9232758,49.9850629 56.7763177,50.3442837 56.9232758,50.7035189 L60.6143019,61.9126447 C61.0495328,63.2064143 60.6143019,64.5001839 59.5290465,65.2887454 C58.8762002,65.7938961 58.2261611,66.0099889 57.6467794,66.0099889 L57.6473438,66.0098309 Z M45.7095338,56.1678995 C46.3595584,56.1678995 46.9389111,56.3839923 47.5182929,56.7432131 L57.1416147,63.6386 C57.6475029,63.9978208 58.0092403,63.7115649 58.1533622,63.6386 C58.2974841,63.5656351 58.6592504,63.2064143 58.441635,62.7040512 L54.7534305,51.4252366 C54.3181997,50.2044606 54.7534305,48.8376973 55.838686,48.0491358 L65.4620078,41.0808271 C65.967896,40.7216063 65.8237596,40.219272 65.7502806,40.1462783 C65.6768016,40.0031504 65.5326652,39.5709646 64.953269,39.5709646 L53.0892564,39.5709646 C51.786371,39.5709646 50.6305016,38.7094095 50.1952418,37.4886335 L46.5042157,26.2795078 C46.2866003,25.7041941 45.8541911,25.7041941 45.7072041,25.7041941 C45.5630677,25.7041941 45.0571795,25.777159 44.9101925,26.2795078 L41.2191663,37.4886335 C40.7839355,38.7094095 39.6280371,39.5709646 38.3251518,39.5709646 L26.3931298,39.5709646 C25.8137626,39.5709646 25.5961182,40.0031504 25.5961182,40.1462783 C25.5226392,40.2894062 25.4519818,40.791755 25.884391,41.0808271 L35.5077129,48.0491358 C36.5929683,48.8405711 37.0282281,50.2044606 36.5929683,51.4252366 L32.9019422,62.6343623 C32.6843267,63.209676 33.1195576,63.4959175 33.190215,63.5689112 C33.3343514,63.6418761 33.7695822,63.928132 34.2019624,63.5689112 L43.8252843,56.6006025 C44.4809595,56.3115447 45.0574833,56.1684167 45.710373,56.1684167 L45.7095338,56.1678995 Z" id="Fill-1" fill="#B0C5EE"></path>
                </g>
            </g>
        </g>
    </g>
</svg>