<?xml version="1.0" encoding="UTF-8"?>
<svg width="90px" height="90px" viewBox="0 0 90 90" version="1.1" xmlns="http://www.w3.org/2000/svg" xmlns:xlink="http://www.w3.org/1999/xlink">
    <!-- Generator: Sketch 49.1 (51147) - http://www.bohemiancoding.com/sketch -->
    <title>Group 12</title>
    <desc>Created with Sketch.</desc>
    <defs></defs>
    <g id="Page-1" stroke="none" stroke-width="1" fill="none" fill-rule="evenodd">
        <g id="Home-V4-(Update-Icons)" transform="translate(-417.000000, -1456.000000)">
            <g id="Group-23" transform="translate(347.000000, 1423.000000)">
                <g id="Group-12" transform="translate(70.000000, 33.000000)">
                    <circle id="Oval-6-Copy-3" fill="#F7F7F7" opacity="0.200000003" cx="45" cy="45" r="45"></circle>
                    <path d="M49.2903693,21.1319043 C48.9721502,21.1612648 48.6890856,21.3413564 48.5251082,21.6173619 L27.5344044,56.6955856 C27.3489415,57.0048703 27.3430841,57.3924396 27.5207404,57.7075924 C27.6983968,58.0207908 28.0322139,58.2145729 28.393404,58.2145729 C34.6346399,58.2145729 41.5830626,55.7207117 46.0415881,48.8186202 C46.2797626,48.4486551 46.2485264,47.965167 45.9634976,47.6284661 C44.266999,45.6181331 43.7203411,42.8658957 44.4329255,40.299623 L48.3999186,42.5390168 C48.8704153,42.8013217 49.4658466,42.6427631 49.7430738,42.1788386 L61.237983,22.6352568 C61.4156393,22.3259721 61.4156393,21.9462202 61.2399321,21.6349762 C61.0622758,21.3256915 60.7343061,21.1338587 60.3789634,21.1319043 L49.3838329,21.1319043 C49.3525967,21.1299449 49.3213605,21.1299449 49.2901244,21.1319043 L49.2903693,21.1319043 Z M49.9463288,23.1363742 L58.629983,23.1363742 L48.5249582,40.3151827 L41.902891,36.5881214 L49.9463288,23.1363742 Z M40.8878405,38.2951781 L42.6214727,39.2817782 C41.6023741,42.3530771 42.1705025,45.653487 43.9958641,48.2237185 C40.3822144,53.4543828 35.2672297,55.5956578 30.267444,56.0221088 L40.8878405,38.2951781 Z M30.2985302,65.2302428 C30.0330228,65.2419879 29.7831585,65.3594359 29.6054872,65.5571417 C29.4258767,65.7528882 29.3341223,66.0132388 29.3458372,66.2794525 C29.357552,66.5456661 29.4746851,66.7962048 29.6718628,66.9743521 C29.8670863,67.1544437 30.1267413,67.2464438 30.3922437,67.2346977 L35.3900304,67.2346977 C35.6574919,67.2386124 35.9151978,67.134865 36.106513,66.946946 C36.2958842,66.7570675 36.4032566,66.5006407 36.4032566,66.2324527 C36.4032566,65.9642646 36.2958842,65.7078328 36.106513,65.5179594 C35.9151928,65.3300403 35.6574919,65.2262939 35.3900304,65.2302077 L30.3922437,65.2302077 C30.3610076,65.2282503 30.3297714,65.2282503 30.2985352,65.2302077 L30.2985302,65.2302428 Z M39.2945461,65.2302428 C39.0290387,65.2419879 38.7791744,65.3594359 38.6015031,65.5571417 C38.4218926,65.7528882 38.3301383,66.0132388 38.3418531,66.2794525 C38.3535679,66.5456661 38.470701,66.7962048 38.6678787,66.9743521 C38.8631022,67.1544437 39.1227572,67.2464438 39.3882596,67.2346977 L44.3860463,67.2346977 C44.6535078,67.2386124 44.9112137,67.134865 45.1025289,66.946946 C45.2919001,66.7570675 45.3992725,66.5006407 45.3992725,66.2324527 C45.3992725,65.9642646 45.2919001,65.7078328 45.1025289,65.5179594 C44.9112087,65.3300403 44.6535078,65.2262939 44.3860463,65.2302077 L39.3882596,65.2302077 C39.3570235,65.2282503 39.3257873,65.2282503 39.2945511,65.2302077 L39.2945461,65.2302428 Z M48.2905621,65.2302428 C48.0250546,65.2419879 47.7751903,65.3594359 47.597519,65.5571417 C47.4179085,65.7528882 47.3261542,66.0132388 47.337869,66.2794525 C47.3495838,66.5456661 47.4667169,66.7962048 47.6638946,66.9743521 C47.8591181,67.1544437 48.1187731,67.2464438 48.3842756,67.2346977 L53.3820622,67.2346977 C53.6495237,67.2386124 53.9072296,67.134865 54.0985449,66.946946 C54.287916,66.7570675 54.3952884,66.5006407 54.3952884,66.2324527 C54.3952884,65.9642646 54.287916,65.7078328 54.0985449,65.5179594 C53.9072246,65.3300403 53.6495237,65.2262939 53.3820622,65.2302077 L48.3842756,65.2302077 C48.3530394,65.2282503 48.3218032,65.2282503 48.2905671,65.2302077 L48.2905621,65.2302428 Z M57.286578,65.2302428 C57.0210706,65.2419879 56.7712062,65.3594359 56.5935349,65.5571417 C56.4139244,65.7528882 56.3221701,66.0132388 56.3338849,66.2794525 C56.3455997,66.5456661 56.4627328,66.7962048 56.6599105,66.9743521 C56.855134,67.1544437 57.114789,67.2464438 57.3802915,67.2346977 L62.3780781,67.2346977 C62.6455396,67.2386124 62.9032455,67.134865 63.0945608,66.946946 C63.2839319,66.7570675 63.3913043,66.5006407 63.3913043,66.2324527 C63.3913043,65.9642646 63.2839319,65.7078328 63.0945608,65.5179594 C62.9032405,65.3300403 62.6455396,65.2262939 62.3780781,65.2302077 L57.3802915,65.2302077 C57.3490553,65.2282503 57.3178191,65.2282503 57.286583,65.2302077 L57.286578,65.2302428 Z" id="Fill-1" fill="#FFFFFF"></path>
                </g>
            </g>
        </g>
    </g>
</svg>