<?xml version="1.0" encoding="UTF-8"?>
<svg width="90px" height="90px" viewBox="0 0 90 90" version="1.1" xmlns="http://www.w3.org/2000/svg" xmlns:xlink="http://www.w3.org/1999/xlink">
    <!-- Generator: Sketch 49.1 (51147) - http://www.bohemiancoding.com/sketch -->
    <title>Group 10</title>
    <desc>Created with Sketch.</desc>
    <defs></defs>
    <g id="Page-1" stroke="none" stroke-width="1" fill="none" fill-rule="evenodd">
        <g id="Home-V4-(Update-Icons)" transform="translate(-548.000000, -1216.000000)">
            <g id="Group-21" transform="translate(478.000000, 1183.000000)">
                <g id="Group-10" transform="translate(70.000000, 33.000000)">
                    <circle id="Oval-6-Copy" fill="#F7F7F7" opacity="0.200000003" cx="45" cy="45" r="45"></circle>
                    <g id="Group-4" transform="translate(35.217391, 18.782609)" stroke="#FFFFFF" stroke-width="1.8">
                        <path d="M15.2608696,34.7019933 C17.4726341,36.4310866 18.8944099,39.1240407 18.8944099,42.1490683 C18.8944099,47.3666156 14.6647522,51.5962733 9.44720497,51.5962733 C4.22965774,51.5962733 0,47.3666156 0,42.1490683 C0,39.1240407 1.42177586,36.4310866 3.63354037,34.7019933 L3.63354037,5.8136646 C3.63354037,2.6028663 6.23640667,5.89814079e-16 9.44720497,0 C12.6580033,-5.89814079e-16 15.2608696,2.6028663 15.2608696,5.8136646 L15.2608696,34.7019933 Z" id="Combined-Shape"></path>
                        <path d="M9.44720497,37.8396892 L9.44720497,15.9875776" id="Line-4" stroke-linecap="round"></path>
                        <circle id="Oval-2" cx="9.44720497" cy="41.7857143" r="3.46024845"></circle>
                    </g>
                </g>
            </g>
        </g>
    </g>
</svg>