<?xml version="1.0" encoding="UTF-8"?>
<svg width="90px" height="90px" viewBox="0 0 90 90" version="1.1" xmlns="http://www.w3.org/2000/svg" xmlns:xlink="http://www.w3.org/1999/xlink">
    <!-- Generator: Sketch 49.1 (51147) - http://www.bohemiancoding.com/sketch -->
    <title>Group 9</title>
    <desc>Created with Sketch.</desc>
    <defs></defs>
    <g id="Page-1" stroke="none" stroke-width="1" fill="none" fill-rule="evenodd">
        <g id="Home-V4-(Update-Icons)" transform="translate(-293.000000, -1216.000000)">
            <g id="Group-20" transform="translate(223.000000, 1183.000000)">
                <g id="Group-9" transform="translate(70.000000, 33.000000)">
                    <circle id="Oval-6" fill="#F7F7F7" opacity="0.2" cx="45" cy="45" r="45"></circle>
                    <path d="M66.3945024,54.7710141 L61.2753587,59.8910405 L51.6691521,50.2831774 L60.2138419,41.7370141 C60.5985352,41.3522544 60.5985352,40.7270259 60.2138419,40.3422662 C59.8291486,39.9575065 59.2040278,39.9575065 58.8193345,40.3422662 L56.6554405,42.5065334 L38.8724341,24.7190349 C36.9822523,22.8285272 34.4706429,21.7870952 31.7945504,21.7870952 C29.4549474,21.7870952 27.2651593,22.6250426 25.4822632,24.0901127 L22.8134622,21.4190045 C22.4287688,21.0342449 21.8036481,21.0342449 21.4189548,21.4190045 C21.0342615,21.8037642 21.0342615,22.4289927 21.4189548,22.8137524 L24.0914489,25.4867074 C20.8751757,29.4157073 21.0527265,35.2129582 24.7184162,38.8753966 L42.5028501,56.6628951 L40.3389513,58.8271623 C39.954258,59.211922 39.954258,59.8371505 40.3389513,60.2219102 C40.5331492,60.4161416 40.7846795,60.5104823 41.0380799,60.5104823 C41.2914756,60.5104823 41.542987,60.4142948 41.7372038,60.2219102 L50.2818936,51.6757469 L59.8881002,61.2836101 L54.7689565,66.4036365 C54.3842632,66.7883962 54.3842632,67.4136247 54.7689565,67.7983844 C54.9631544,67.9926158 55.2146847,68.0869565 55.4680804,68.0869565 C55.7214619,68.0869565 55.9729874,67.990769 56.1672043,67.7983844 L67.7984365,56.1651463 C68.1831299,55.7803867 68.1831299,55.1551581 67.7984365,54.7703985 C67.4100454,54.3874904 66.7812364,54.3856388 66.3946965,54.7703985 L66.3945024,54.7710141 Z M43.8952695,55.2704677 L26.1108379,37.4829692 C22.9759552,34.3475449 22.9759552,29.2493491 26.1108379,26.1139722 C27.629252,24.5952962 29.6489275,23.7591483 31.7943563,23.7591483 C33.9416315,23.7591483 35.9594131,24.5952488 37.4778746,26.1139722 L55.2623062,43.9014707 L50.2781011,48.8865353 L39.4602881,38.0706451 L42.4194675,35.1109554 C42.8041608,34.7261958 42.8041608,34.1009672 42.4194675,33.7162076 C42.0347742,33.3314479 41.4096534,33.3314479 41.0249601,33.7162076 L33.7103421,41.032087 C33.3256487,41.4168467 33.3256487,42.0420752 33.7103421,42.4268349 C33.90454,42.6210663 34.1560702,42.715407 34.409466,42.715407 C34.6628617,42.715407 34.914373,42.6192194 35.1085899,42.4268349 L38.0677693,39.4671451 L48.8855823,50.2868237 L43.8952695,55.2704677 Z" id="Fill-1" fill="#FFFFFF"></path>
                </g>
            </g>
        </g>
    </g>
</svg>