<?xml version="1.0" encoding="UTF-8"?>
<svg width="90px" height="90px" viewBox="0 0 90 90" version="1.1" xmlns="http://www.w3.org/2000/svg" xmlns:xlink="http://www.w3.org/1999/xlink">
    <!-- Generator: Sketch 49.1 (51147) - http://www.bohemiancoding.com/sketch -->
    <title>Group 16</title>
    <desc>Created with Sketch.</desc>
    <defs></defs>
    <g id="Page-1" stroke="none" stroke-width="1" fill="none" fill-rule="evenodd">
        <g id="Home-V4-(Update-Icons)" transform="translate(-672.000000, -1456.000000)">
            <g id="Group-19" transform="translate(602.000000, 1423.000000)">
                <g id="Group-16" transform="translate(70.000000, 33.000000)">
                    <circle id="Oval-6-Copy-7" fill="#F7F7F7" opacity="0.06" cx="45" cy="45" r="45"></circle>
                    <path d="M64.5553837,64.5498645 C64.0136907,65.0920741 63.1102668,65.0920741 62.5226799,64.5498645 L52.9906544,55.0087489 C49.9645457,57.5856011 46.0351938,59.1681008 41.6978556,59.1681008 C32.0759394,59.1681008 24.2608696,51.3455785 24.2608696,41.7144852 C24.2608696,32.0833918 32.0759394,24.2608696 41.6978556,24.2608696 C51.3197719,24.2608696 59.1348403,32.0833918 59.1348403,41.7144852 C59.1348403,46.0098416 57.5538485,49.9430316 54.9794517,53.0180547 L64.5114773,62.5591716 C65.0973025,63.0572503 65.0973025,63.9615359 64.555587,64.549638 L64.5553837,64.5498645 Z M56.2886033,41.7166555 C56.2886033,33.6680618 49.7848546,27.1581101 41.7439302,27.1581101 C33.7030013,27.1581101 27.1992526,33.6680618 27.1992526,41.7166555 C27.1992526,49.7652491 33.7030013,56.2752009 41.7439302,56.2752009 C49.7387755,56.2752009 56.2886033,49.7191305 56.2886033,41.7166555 Z" id="Fill-1" fill="#B0C5EE"></path>
                </g>
            </g>
        </g>
    </g>
</svg>