<?xml version="1.0" encoding="UTF-8"?>
<svg width="58px" height="53px" viewBox="0 0 58 53" version="1.1" xmlns="http://www.w3.org/2000/svg" xmlns:xlink="http://www.w3.org/1999/xlink">
    <!-- Generator: Sketch 49.1 (51147) - http://www.bohemiancoding.com/sketch -->
    <title>Icon''</title>
    <desc>Created with Sketch.</desc>
    <defs></defs>
    <g id="Page-1" stroke="none" stroke-width="1" fill="none" fill-rule="evenodd">
        <g id="Home-V4-(Update-Icons)" transform="translate(-798.000000, -2396.000000)" fill="#60646F">
            <g id="Icon''" transform="translate(827.000000, 2422.264151) scale(1, -1) translate(-827.000000, -2422.264151) translate(798.000000, 2396.000000)">
                <g id="Group-18">
                    <path d="M45.1614583,0 C38.0810026,0 32.3229167,5.7945625 32.3229167,12.9198718 C32.3229167,20.0451811 38.0810026,25.8397436 45.1614583,25.8397436 C47.5109115,25.8397436 49.6838346,25.1549904 51.5807292,24.0406514 L51.5807292,32.2996795 C51.5807292,39.4249888 45.8226432,45.2195513 38.7421875,45.2195513 L35.5325521,45.2195513 L35.5325521,51.6794872 L38.7421875,51.6794872 C49.3628711,51.6794872 58,42.9876434 58,32.2996795 L58,12.9198718 C58,5.7945625 52.2419141,0 45.1614583,0 Z" id="Shape" transform="translate(45.161458, 25.839744) scale(1, -1) translate(-45.161458, -25.839744) "></path>
                    <path d="M12.8385417,0 C5.75808594,0 0,5.7945625 0,12.9198718 C0,20.0451811 5.75808594,25.8397436 12.8385417,25.8397436 C15.1879948,25.8397436 17.360918,25.1549904 19.2578125,24.0406514 L19.2578125,32.2996795 C19.2578125,39.4249888 13.4997266,45.2195513 6.41927083,45.2195513 L3.20963542,45.2195513 L3.20963542,51.6794872 L6.41927083,51.6794872 C17.0399544,51.6794872 25.6770833,42.9876434 25.6770833,32.2996795 L25.6770833,12.9198718 C25.6770833,5.7945625 19.9189974,0 12.8385417,0 Z" id="Shape" transform="translate(12.838542, 25.839744) scale(1, -1) translate(-12.838542, -25.839744) "></path>
                </g>
            </g>
        </g>
    </g>
</svg>