<?xml version="1.0" encoding="UTF-8"?>
<svg width="200px" height="200px" viewBox="0 0 200 200" version="1.1" xmlns="http://www.w3.org/2000/svg" xmlns:xlink="http://www.w3.org/1999/xlink">
    <!-- Generator: Sketch 49.1 (51147) - http://www.bohemiancoding.com/sketch -->
    <title>Group 9</title>
    <desc>Created with Sketch.</desc>
    <defs></defs>
    <g id="Page-1" stroke="none" stroke-width="1" fill="none" fill-rule="evenodd">
        <g id="Service-(Single)" transform="translate(-161.000000, -382.000000)">
            <g id="service-intro" transform="translate(161.000000, 382.000000)">
                <g id="Group-9">
                    <circle id="Oval-6" fill="#3F424D" cx="100" cy="100" r="100"></circle>
                    <path d="M144.528135,121.281159 L134.289848,131.521212 L115.077435,112.305485 L132.166814,95.2131586 C132.936201,94.4436393 132.936201,93.1931822 132.166814,92.4236628 C131.397428,91.6541435 130.147186,91.6541435 129.377799,92.4236628 L125.050011,96.7521972 L89.4839986,61.1772002 C85.703635,57.3961848 80.6804161,55.3133209 75.3282312,55.3133209 C70.6490252,55.3133209 66.2694491,56.9892156 62.7036569,59.9193558 L57.3660547,54.5771395 C56.5966681,53.8076202 55.3464266,53.8076202 54.57704,54.5771395 C53.8076533,55.3466588 53.8076533,56.5971159 54.57704,57.3666352 L59.9220282,62.7125452 C53.4894819,70.5705451 53.8445834,82.1650468 61.1759627,89.4899237 L96.7448306,125.064921 L92.417033,129.393455 C91.6476464,130.162974 91.6476464,131.413431 92.417033,132.182951 C92.8054289,132.571414 93.3084894,132.760095 93.8152903,132.760095 C94.3220817,132.760095 94.8251044,132.56772 95.2135381,132.182951 L112.302918,115.090624 L131.515331,134.306351 L121.277043,144.546404 C120.507657,145.315923 120.507657,146.56638 121.277043,147.335899 C121.665439,147.724362 122.1685,147.913043 122.675291,147.913043 C123.182054,147.913043 123.685105,147.720668 124.073539,147.335899 L147.336003,124.069423 C148.10539,123.299904 148.10539,122.049447 147.336003,121.279927 C146.559221,120.514111 145.301603,120.510408 144.528523,121.279927 L144.528135,121.281159 Z M99.5296693,122.280066 L63.9608062,86.7050687 C57.6910408,80.4342202 57.6910408,70.2378286 63.9608062,63.9670748 C66.9976345,60.9297228 71.0369854,59.2574271 75.3278429,59.2574271 C79.6223935,59.2574271 83.6579567,60.9296281 86.6948796,63.9670748 L122.263743,99.5420718 L112.295333,109.512201 L90.6597066,87.8804207 L96.5780654,81.9610413 C97.3474521,81.1915219 97.3474521,79.9410649 96.5780654,79.1715455 C95.8086788,78.4020262 94.5584373,78.4020262 93.7890507,79.1715455 L79.1598146,93.8033045 C78.3904279,94.5728238 78.3904279,95.8232809 79.1598146,96.5928002 C79.5482104,96.981263 80.0512709,97.1699444 80.5580624,97.1699444 C81.0648538,97.1699444 81.5678764,96.9775693 81.9563101,96.5928002 L87.874669,90.6734207 L109.510295,112.312778 L99.5296693,122.280066 Z" id="Fill-1" fill="#B0C5EE"></path>
                </g>
            </g>
        </g>
    </g>
</svg>