<?xml version="1.0" encoding="UTF-8"?>
<svg width="200px" height="200px" viewBox="0 0 200 200" version="1.1" xmlns="http://www.w3.org/2000/svg" xmlns:xlink="http://www.w3.org/1999/xlink">
    <!-- Generator: Sketch 49.1 (51147) - http://www.bohemiancoding.com/sketch -->
    <title>Group 31</title>
    <desc>Created with Sketch.</desc>
    <defs></defs>
    <g id="Page-1" stroke="none" stroke-width="1" fill="none" fill-rule="evenodd">
        <g id="Group-31">
            <g id="Group-30" fill="#3F424D">
                <g id="Group-29">
                    <g id="Group-28">
                        <circle id="Oval-6" cx="100" cy="100" r="100"></circle>
                    </g>
                </g>
            </g>
            <path d="M103.3649,59.0027758 C102.76382,59.0582344 102.229142,59.3984075 101.919407,59.9197512 L62.2703001,126.178618 C61.9199813,126.762823 61.9089174,127.494898 62.2444904,128.090187 C62.5800635,128.681784 63.210607,129.047817 63.8928548,129.047817 C75.681856,129.047817 88.8066545,124.33719 97.2283137,111.299906 C97.6781989,110.601083 97.6191972,109.687827 97.0808096,109.051837 C93.8763121,105.254541 92.8437361,100.055871 94.1897288,95.2084665 L101.682938,99.4384326 C102.571654,99.9338975 103.696358,99.634398 104.220009,98.758096 L125.932615,61.8424415 C126.268188,61.2582371 126.268188,60.540928 125.936297,59.9530226 C125.600724,59.3688182 124.981225,59.0064673 124.310023,59.0027758 L103.541443,59.0027758 C103.482441,58.9990747 103.423439,58.9990747 103.364438,59.0027758 L103.3649,59.0027758 Z M104.603935,62.7889968 L121.006393,62.7889968 L101.919124,95.2378571 L89.4107748,88.1978525 L104.603935,62.7889968 Z M87.4934572,91.4222929 L90.7680959,93.2858709 C88.8431317,99.0872133 89.9162631,105.321321 93.3641683,110.176203 C86.5383857,120.056346 76.876748,124.100977 67.4327082,124.906495 L87.4934572,91.4222929 Z M67.4914267,142.299637 C66.9899127,142.321823 66.5179467,142.543669 66.1823453,142.917113 C65.8430811,143.286857 65.6697673,143.77863 65.6918953,144.281478 C65.7140233,144.784326 65.9352747,145.257566 66.3077215,145.594066 C66.676477,145.934239 67.1669365,146.108017 67.6684411,146.08583 L77.1087047,146.08583 C77.6139098,146.093224 78.1006876,145.897257 78.4620609,145.542299 C78.8197619,145.18364 79.0225765,144.699278 79.0225765,144.1927 C79.0225765,143.686123 78.8197619,143.201752 78.4620609,142.843102 C78.1006781,142.488144 77.6139098,142.292178 77.1087047,142.299571 L67.6684411,142.299571 C67.6094394,142.295874 67.5504378,142.295874 67.4914361,142.299571 L67.4914267,142.299637 Z M84.4839012,142.299637 C83.9823872,142.321823 83.5104212,142.543669 83.1748198,142.917113 C82.8355556,143.286857 82.6622418,143.77863 82.6843698,144.281478 C82.7064978,144.784326 82.9277492,145.257566 83.300196,145.594066 C83.6689515,145.934239 84.159411,146.108017 84.6609156,146.08583 L94.1011792,146.08583 C94.6063843,146.093224 95.0931621,145.897257 95.4545354,145.542299 C95.8122364,145.18364 96.015051,144.699278 96.015051,144.1927 C96.015051,143.686123 95.8122364,143.201752 95.4545354,142.843102 C95.0931526,142.488144 94.6063843,142.292178 94.1011792,142.299571 L84.6609156,142.299571 C84.6019139,142.295874 84.5429123,142.295874 84.4839106,142.299571 L84.4839012,142.299637 Z M101.476376,142.299637 C100.974862,142.321823 100.502896,142.543669 100.167294,142.917113 C99.8280301,143.286857 99.6547163,143.77863 99.6768443,144.281478 C99.6989723,144.784326 99.9202237,145.257566 100.29267,145.594066 C100.661426,145.934239 101.151885,146.108017 101.65339,146.08583 L111.093654,146.08583 C111.598859,146.093224 112.085637,145.897257 112.44701,145.542299 C112.804711,145.18364 113.007526,144.699278 113.007526,144.1927 C113.007526,143.686123 112.804711,143.201752 112.44701,142.843102 C112.085627,142.488144 111.598859,142.292178 111.093654,142.299571 L101.65339,142.299571 C101.594388,142.295874 101.535387,142.295874 101.476385,142.299571 L101.476376,142.299637 Z M118.46885,142.299637 C117.967336,142.321823 117.49537,142.543669 117.159769,142.917113 C116.820505,143.286857 116.647191,143.77863 116.669319,144.281478 C116.691447,144.784326 116.912698,145.257566 117.285145,145.594066 C117.653901,145.934239 118.14436,146.108017 118.645865,146.08583 L128.086128,146.08583 C128.591333,146.093224 129.078111,145.897257 129.439484,145.542299 C129.797185,145.18364 130,144.699278 130,144.1927 C130,143.686123 129.797185,143.201752 129.439484,142.843102 C129.078102,142.488144 128.591333,142.292178 128.086128,142.299571 L118.645865,142.299571 C118.586863,142.295874 118.527861,142.295874 118.46886,142.299571 L118.46885,142.299637 Z" id="Fill-1" fill="#B0C5EE"></path>
        </g>
    </g>
</svg>