<?xml version="1.0" encoding="UTF-8"?>
<svg width="200px" height="200px" viewBox="0 0 200 200" version="1.1" xmlns="http://www.w3.org/2000/svg" xmlns:xlink="http://www.w3.org/1999/xlink">
    <!-- Generator: Sketch 49.1 (51147) - http://www.bohemiancoding.com/sketch -->
    <title>Group 30</title>
    <desc>Created with Sketch.</desc>
    <defs></defs>
    <g id="Page-1" stroke="none" stroke-width="1" fill="none" fill-rule="evenodd">
        <g id="Group-30">
            <g id="Group-29" fill="#3F424D">
                <g id="Group-28">
                    <circle id="Oval-6" cx="100" cy="100" r="100"></circle>
                </g>
            </g>
            <path d="M123.937623,143.809308 C122.62617,143.809308 121.457301,143.373331 120.288373,142.648587 L100.872899,128.589719 C100.291296,128.153742 99.4131983,128.153742 98.8316537,128.589719 L79.4161798,142.648587 C77.2266293,144.245343 74.4555342,144.245343 72.2659837,142.648587 C70.0764333,141.051832 69.1982776,138.447393 70.0764333,135.837156 L77.5232404,113.222253 C77.8140419,112.497509 77.5232404,111.772766 76.9416374,111.33676 L57.5261635,97.2778914 C55.336613,95.6811361 54.4584573,93.0766971 55.336613,90.4664601 C56.2147103,87.8562232 58.4043192,86.2652658 61.1754143,86.2652658 L85.2604695,86.2652658 C85.9903197,86.2652658 86.7201698,85.8292889 86.8684754,85.1045452 L94.0129786,62.2011944 C94.8910759,59.5909574 97.0806848,58 99.8517799,58 C102.622875,58 104.812425,59.5967554 105.690581,62.2011944 L113.137388,84.8160972 C113.42819,85.5408409 114.015486,85.9768178 114.745394,85.9768178 L138.824611,85.9711648 C141.595706,85.9711648 143.785256,87.5679201 144.663412,90.1723591 C145.541509,92.7825961 144.663412,95.392833 142.473861,96.9837904 L123.058387,111.042659 C122.476784,111.478636 122.18029,112.203379 122.476784,112.928152 L129.923592,135.543055 C130.801689,138.153292 129.923592,140.763529 127.734041,142.354486 C126.416895,143.37365 125.105413,143.809627 123.936485,143.809627 L123.937623,143.809308 Z M99.8525681,123.95278 C101.164021,123.95278 102.332891,124.388756 103.501819,125.1135 L122.917293,139.025246 C123.937945,139.749989 124.667765,139.172456 124.958538,139.025246 C125.24931,138.878036 125.979189,138.153292 125.540141,137.139752 L118.099026,114.384249 C117.220929,111.92128 118.099026,109.163775 120.288577,107.572818 L139.704051,93.5139495 C140.724703,92.7892057 140.433901,91.7757241 140.285654,91.6284562 C140.137407,91.3396893 139.846605,90.4677357 138.677648,90.4677357 L114.741482,90.4677357 C112.112854,90.4677357 109.780837,88.7295103 108.902681,86.2665413 L101.455874,63.6516385 C101.016825,62.4909179 100.144421,62.4909179 99.8478679,62.4909179 C99.5570664,62.4909179 98.5364147,62.6381279 98.239862,63.6516385 L90.7930549,86.2665413 C89.9149575,88.7295103 87.5828819,90.4677357 84.9542536,90.4677357 L60.880876,90.4677357 C59.7119771,90.4677357 59.2728701,91.3396893 59.2728701,91.6284562 C59.1246229,91.9172231 58.9820686,92.9307337 59.8544731,93.5139495 L79.269947,107.572818 C81.4594975,109.169573 82.3376532,111.92128 81.4594975,114.384249 L74.0126903,136.999152 C73.5736417,138.159873 74.451739,138.737377 74.5942933,138.884645 C74.8850948,139.031855 75.7631922,139.609389 76.6355383,138.884645 L96.0510122,124.825777 C97.3738656,124.24259 98.5370278,123.953823 99.8542614,123.953823 L99.8525681,123.95278 Z" id="Fill-1" fill="#B0C5EE"></path>
        </g>
    </g>
</svg>