<?xml version="1.0" encoding="UTF-8"?>
<svg width="200px" height="200px" viewBox="0 0 200 200" version="1.1" xmlns="http://www.w3.org/2000/svg" xmlns:xlink="http://www.w3.org/1999/xlink">
    <!-- Generator: Sketch 49.1 (51147) - http://www.bohemiancoding.com/sketch -->
    <title>Group 29</title>
    <desc>Created with Sketch.</desc>
    <defs></defs>
    <g id="Page-1" stroke="none" stroke-width="1" fill="none" fill-rule="evenodd">
        <g id="Group-29">
            <g id="Group-28" fill="#3F424D">
                <circle id="Oval-6" cx="100" cy="100" r="100"></circle>
            </g>
            <g id="Group-2" transform="translate(56.000000, 54.000000)" stroke="#B0C5EE" stroke-width="4">
                <path d="M68.4344225,54.5459591 C60.6080845,59.9721482 53.8626824,64.1027478 48.1982162,66.9377581 C43.0451089,69.5168382 39.3566064,71.0721907 32.2444376,73.7153758 C24.8660971,76.4574817 19.5508514,78.7152922 18.7326213,81.3240907 C17.8534051,84.1273337 22.9942163,89.1286278 41.7718686,89.6434449 C44.5866448,89.7206161 53.9291896,91.113719 63.3913498,91.1578183 C69.5485241,91.1865144 75.166522,91.1865144 81.2809219,89.6434449 C87.0515386,88.1871346 89.8693392,85.1190807 87.4803582,79.6083782 C85.8877042,75.9345765 79.539059,67.5804368 68.4344225,54.5459591 Z" id="Path-2"></path>
                <path d="M21.8532486,68.4366099 C22.7202501,70.5752509 24.9716298,71.6951375 25.9025355,71.268826 C54.1377247,58.3384241 66.3169446,49.7439222 65.3784993,45.8832818 C64.4443899,42.0404791 61.6685451,43.8097681 56.1116796,37.0484694 C54.3739083,34.9340416 52.00387,31.6934735 49.6414254,28.7273469 C47.0224737,25.439167 43.7494591,21.5878555 42.0638441,16.3801089 C38.8577077,6.47467639 39.335861,4.72284696 38.8577077,1.01662662 C38.1540488,-3.33476175 -3.6145509,13.3237376 0.324138088,18.2127009 C4.26282708,23.1016641 4.66196745,23.3651298 8.09071679,25.8108604 C17.0044641,32.1690462 24.9574372,35.9542577 25.9025355,38.9721371 C26.3216226,40.3103618 26.8999366,41.907665 26.7448922,43.6601557 C26.2103785,49.7018443 23.373541,57.4313171 22.274769,62.7729758 C22.0444951,63.8924476 20.9862471,66.2979689 21.8532486,68.4366099 Z" id="Path-3"></path>
            </g>
        </g>
    </g>
</svg>